<svg xmlns="http://www.w3.org/2000/svg" viewBox="0 0 1440 190" preserveAspectRatio="none"><defs><linearGradient id="b" x2="0" y2="1"><stop stop-color="#69050f"/><stop offset=".5" stop-color="#ad0f20"/><stop offset="1" stop-color="#410309"/></linearGradient></defs><path fill="url(#b)" d="M0 0h1440v21l-18 6-9 46q-7 27-13 0l-4-44-46 3-25 7-15 67q-6 31-12 0l-3-55-38-7-60 10-4 22q-4 15-8 0l-3-20-56-13-60 6-24 4-6 47q-5 20-10 0l-4-53-66 9-19-4-41 8-51-3-5 30q-4 16-8 0l-4-38-100 7-50-4-80 8-43-10-22 6-5 25q-4 18-8 0l-3-30-90 2-30 13-8 70q-5 27-11 0l-4-76-48-8-66 8-26-4-5 38q-4 22-9 0l-3-43-49-3-48 10-39-7-6 103q-6 36-13 0l-4-107-56 8-42-4-33 3-6 51q-5 22-10 0l-3-46-51-6z"/><g fill="#9e1424"><ellipse cx="1360" cy="130" rx="3" ry="7"/><ellipse cx="175" cy="174" rx="3" ry="6"/><circle cx="45" cy="98" r="3"/><circle cx="80" cy="77" r="2"/><circle cx="1290" cy="150" r="2"/><circle cx="1100" cy="112" r="3"/></g></svg>
